<?xml version='1.0' encoding='utf-8'?>
<svg xmlns:xlink="http://www.w3.org/1999/xlink" xmlns="http://www.w3.org/2000/svg" id="chart-e7371dd1-cd69-4459-ae8a-465f69812c73" class="pygal-chart" viewBox="0 0 800 600"><!--Generated with pygal 2.4.0 (lxml) ©Kozea 2012-2016 on 2017-10-02--><!--http://pygal.org--><!--http://github.com/Kozea/pygal--><defs><style type="text/css">#chart-e7371dd1-cd69-4459-ae8a-465f69812c73{-webkit-user-select:none;-webkit-font-smoothing:antialiased;font-family:Consolas,"Liberation Mono",Menlo,Courier,monospace}#chart-e7371dd1-cd69-4459-ae8a-465f69812c73 .title{font-family:Consolas,"Liberation Mono",Menlo,Courier,monospace;font-size:16px}#chart-e7371dd1-cd69-4459-ae8a-465f69812c73 .legends .legend text{font-family:Consolas,"Liberation Mono",Menlo,Courier,monospace;font-size:14px}#chart-e7371dd1-cd69-4459-ae8a-465f69812c73 .axis text{font-family:Consolas,"Liberation Mono",Menlo,Courier,monospace;font-size:10px}#chart-e7371dd1-cd69-4459-ae8a-465f69812c73 .axis text.major{font-family:Consolas,"Liberation Mono",Menlo,Courier,monospace;font-size:10px}#chart-e7371dd1-cd69-4459-ae8a-465f69812c73 .text-overlay text.value{font-family:Consolas,"Liberation Mono",Menlo,Courier,monospace;font-size:16px}#chart-e7371dd1-cd69-4459-ae8a-465f69812c73 .text-overlay text.label{font-family:Consolas,"Liberation Mono",Menlo,Courier,monospace;font-size:10px}#chart-e7371dd1-cd69-4459-ae8a-465f69812c73 .tooltip{font-family:Consolas,"Liberation Mono",Menlo,Courier,monospace;font-size:14px}#chart-e7371dd1-cd69-4459-ae8a-465f69812c73 text.no_data{font-family:Consolas,"Liberation Mono",Menlo,Courier,monospace;font-size:64px}
#chart-e7371dd1-cd69-4459-ae8a-465f69812c73{background-color:rgba(249,249,249,1)}#chart-e7371dd1-cd69-4459-ae8a-465f69812c73 path,#chart-e7371dd1-cd69-4459-ae8a-465f69812c73 line,#chart-e7371dd1-cd69-4459-ae8a-465f69812c73 rect,#chart-e7371dd1-cd69-4459-ae8a-465f69812c73 circle{-webkit-transition:150ms;-moz-transition:150ms;transition:150ms}#chart-e7371dd1-cd69-4459-ae8a-465f69812c73 .graph &gt; .background{fill:rgba(249,249,249,1)}#chart-e7371dd1-cd69-4459-ae8a-465f69812c73 .plot &gt; .background{fill:rgba(255,255,255,1)}#chart-e7371dd1-cd69-4459-ae8a-465f69812c73 .graph{fill:rgba(0,0,0,.87)}#chart-e7371dd1-cd69-4459-ae8a-465f69812c73 text.no_data{fill:rgba(0,0,0,1)}#chart-e7371dd1-cd69-4459-ae8a-465f69812c73 .title{fill:rgba(0,0,0,1)}#chart-e7371dd1-cd69-4459-ae8a-465f69812c73 .legends .legend text{fill:rgba(0,0,0,.87)}#chart-e7371dd1-cd69-4459-ae8a-465f69812c73 .legends .legend:hover text{fill:rgba(0,0,0,1)}#chart-e7371dd1-cd69-4459-ae8a-465f69812c73 .axis .line{stroke:rgba(0,0,0,1)}#chart-e7371dd1-cd69-4459-ae8a-465f69812c73 .axis .guide.line{stroke:rgba(0,0,0,.54)}#chart-e7371dd1-cd69-4459-ae8a-465f69812c73 .axis .major.line{stroke:rgba(0,0,0,.87)}#chart-e7371dd1-cd69-4459-ae8a-465f69812c73 .axis text.major{fill:rgba(0,0,0,1)}#chart-e7371dd1-cd69-4459-ae8a-465f69812c73 .axis.y .guides:hover .guide.line,#chart-e7371dd1-cd69-4459-ae8a-465f69812c73 .line-graph .axis.x .guides:hover .guide.line,#chart-e7371dd1-cd69-4459-ae8a-465f69812c73 .stackedline-graph .axis.x .guides:hover .guide.line,#chart-e7371dd1-cd69-4459-ae8a-465f69812c73 .xy-graph .axis.x .guides:hover .guide.line{stroke:rgba(0,0,0,1)}#chart-e7371dd1-cd69-4459-ae8a-465f69812c73 .axis .guides:hover text{fill:rgba(0,0,0,1)}#chart-e7371dd1-cd69-4459-ae8a-465f69812c73 .reactive{fill-opacity:.7;stroke-opacity:.8}#chart-e7371dd1-cd69-4459-ae8a-465f69812c73 .ci{stroke:rgba(0,0,0,.87)}#chart-e7371dd1-cd69-4459-ae8a-465f69812c73 .reactive.active,#chart-e7371dd1-cd69-4459-ae8a-465f69812c73 .active .reactive{fill-opacity:.8;stroke-opacity:.9;stroke-width:4}#chart-e7371dd1-cd69-4459-ae8a-465f69812c73 .ci .reactive.active{stroke-width:1.5}#chart-e7371dd1-cd69-4459-ae8a-465f69812c73 .series text{fill:rgba(0,0,0,1)}#chart-e7371dd1-cd69-4459-ae8a-465f69812c73 .tooltip rect{fill:rgba(255,255,255,1);stroke:rgba(0,0,0,1);-webkit-transition:opacity 150ms;-moz-transition:opacity 150ms;transition:opacity 150ms}#chart-e7371dd1-cd69-4459-ae8a-465f69812c73 .tooltip .label{fill:rgba(0,0,0,.87)}#chart-e7371dd1-cd69-4459-ae8a-465f69812c73 .tooltip .label{fill:rgba(0,0,0,.87)}#chart-e7371dd1-cd69-4459-ae8a-465f69812c73 .tooltip .legend{font-size:.8em;fill:rgba(0,0,0,.54)}#chart-e7371dd1-cd69-4459-ae8a-465f69812c73 .tooltip .x_label{font-size:.6em;fill:rgba(0,0,0,1)}#chart-e7371dd1-cd69-4459-ae8a-465f69812c73 .tooltip .xlink{font-size:.5em;text-decoration:underline}#chart-e7371dd1-cd69-4459-ae8a-465f69812c73 .tooltip .value{font-size:1.5em}#chart-e7371dd1-cd69-4459-ae8a-465f69812c73 .bound{font-size:.5em}#chart-e7371dd1-cd69-4459-ae8a-465f69812c73 .max-value{font-size:.75em;fill:rgba(0,0,0,.54)}#chart-e7371dd1-cd69-4459-ae8a-465f69812c73 .map-element{fill:rgba(255,255,255,1);stroke:rgba(0,0,0,.54) !important}#chart-e7371dd1-cd69-4459-ae8a-465f69812c73 .map-element .reactive{fill-opacity:inherit;stroke-opacity:inherit}#chart-e7371dd1-cd69-4459-ae8a-465f69812c73 .color-0,#chart-e7371dd1-cd69-4459-ae8a-465f69812c73 .color-0 a:visited{stroke:#F44336;fill:#F44336}#chart-e7371dd1-cd69-4459-ae8a-465f69812c73 .color-1,#chart-e7371dd1-cd69-4459-ae8a-465f69812c73 .color-1 a:visited{stroke:#3F51B5;fill:#3F51B5}#chart-e7371dd1-cd69-4459-ae8a-465f69812c73 .color-2,#chart-e7371dd1-cd69-4459-ae8a-465f69812c73 .color-2 a:visited{stroke:#009688;fill:#009688}#chart-e7371dd1-cd69-4459-ae8a-465f69812c73 .color-3,#chart-e7371dd1-cd69-4459-ae8a-465f69812c73 .color-3 a:visited{stroke:#FFC107;fill:#FFC107}#chart-e7371dd1-cd69-4459-ae8a-465f69812c73 .color-4,#chart-e7371dd1-cd69-4459-ae8a-465f69812c73 .color-4 a:visited{stroke:#FF5722;fill:#FF5722}#chart-e7371dd1-cd69-4459-ae8a-465f69812c73 .text-overlay .color-0 text{fill:black}#chart-e7371dd1-cd69-4459-ae8a-465f69812c73 .text-overlay .color-1 text{fill:black}#chart-e7371dd1-cd69-4459-ae8a-465f69812c73 .text-overlay .color-2 text{fill:black}#chart-e7371dd1-cd69-4459-ae8a-465f69812c73 .text-overlay .color-3 text{fill:black}#chart-e7371dd1-cd69-4459-ae8a-465f69812c73 .text-overlay .color-4 text{fill:black}
#chart-e7371dd1-cd69-4459-ae8a-465f69812c73 text.no_data{text-anchor:middle}#chart-e7371dd1-cd69-4459-ae8a-465f69812c73 .guide.line{fill:none}#chart-e7371dd1-cd69-4459-ae8a-465f69812c73 .centered{text-anchor:middle}#chart-e7371dd1-cd69-4459-ae8a-465f69812c73 .title{text-anchor:middle}#chart-e7371dd1-cd69-4459-ae8a-465f69812c73 .legends .legend text{fill-opacity:1}#chart-e7371dd1-cd69-4459-ae8a-465f69812c73 .axis.x text{text-anchor:middle}#chart-e7371dd1-cd69-4459-ae8a-465f69812c73 .axis.x:not(.web) text[transform]{text-anchor:start}#chart-e7371dd1-cd69-4459-ae8a-465f69812c73 .axis.x:not(.web) text[transform].backwards{text-anchor:end}#chart-e7371dd1-cd69-4459-ae8a-465f69812c73 .axis.y text{text-anchor:end}#chart-e7371dd1-cd69-4459-ae8a-465f69812c73 .axis.y text[transform].backwards{text-anchor:start}#chart-e7371dd1-cd69-4459-ae8a-465f69812c73 .axis.y2 text{text-anchor:start}#chart-e7371dd1-cd69-4459-ae8a-465f69812c73 .axis.y2 text[transform].backwards{text-anchor:end}#chart-e7371dd1-cd69-4459-ae8a-465f69812c73 .axis .guide.line{stroke-dasharray:4,4}#chart-e7371dd1-cd69-4459-ae8a-465f69812c73 .axis .major.guide.line{stroke-dasharray:6,6}#chart-e7371dd1-cd69-4459-ae8a-465f69812c73 .horizontal .axis.y .guide.line,#chart-e7371dd1-cd69-4459-ae8a-465f69812c73 .horizontal .axis.y2 .guide.line,#chart-e7371dd1-cd69-4459-ae8a-465f69812c73 .vertical .axis.x .guide.line{opacity:0}#chart-e7371dd1-cd69-4459-ae8a-465f69812c73 .horizontal .axis.always_show .guide.line,#chart-e7371dd1-cd69-4459-ae8a-465f69812c73 .vertical .axis.always_show .guide.line{opacity:1 !important}#chart-e7371dd1-cd69-4459-ae8a-465f69812c73 .axis.y .guides:hover .guide.line,#chart-e7371dd1-cd69-4459-ae8a-465f69812c73 .axis.y2 .guides:hover .guide.line,#chart-e7371dd1-cd69-4459-ae8a-465f69812c73 .axis.x .guides:hover .guide.line{opacity:1}#chart-e7371dd1-cd69-4459-ae8a-465f69812c73 .axis .guides:hover text{opacity:1}#chart-e7371dd1-cd69-4459-ae8a-465f69812c73 .nofill{fill:none}#chart-e7371dd1-cd69-4459-ae8a-465f69812c73 .subtle-fill{fill-opacity:.2}#chart-e7371dd1-cd69-4459-ae8a-465f69812c73 .dot{stroke-width:1px;fill-opacity:1}#chart-e7371dd1-cd69-4459-ae8a-465f69812c73 .dot.active{stroke-width:5px}#chart-e7371dd1-cd69-4459-ae8a-465f69812c73 .dot.negative{fill:transparent}#chart-e7371dd1-cd69-4459-ae8a-465f69812c73 text,#chart-e7371dd1-cd69-4459-ae8a-465f69812c73 tspan{stroke:none !important}#chart-e7371dd1-cd69-4459-ae8a-465f69812c73 .series text.active{opacity:1}#chart-e7371dd1-cd69-4459-ae8a-465f69812c73 .tooltip rect{fill-opacity:.95;stroke-width:.5}#chart-e7371dd1-cd69-4459-ae8a-465f69812c73 .tooltip text{fill-opacity:1}#chart-e7371dd1-cd69-4459-ae8a-465f69812c73 .showable{visibility:hidden}#chart-e7371dd1-cd69-4459-ae8a-465f69812c73 .showable.shown{visibility:visible}#chart-e7371dd1-cd69-4459-ae8a-465f69812c73 .gauge-background{fill:rgba(229,229,229,1);stroke:none}#chart-e7371dd1-cd69-4459-ae8a-465f69812c73 .bg-lines{stroke:rgba(249,249,249,1);stroke-width:2px}</style><script type="text/javascript">window.pygal = window.pygal || {};window.pygal.config = window.pygal.config || {};window.pygal.config['e7371dd1-cd69-4459-ae8a-465f69812c73'] = {"allow_interruptions": false, "box_mode": "extremes", "classes": ["pygal-chart"], "css": ["file://style.css", "file://graph.css"], "defs": [], "disable_xml_declaration": false, "dots_size": 2.5, "dynamic_print_values": false, "explicit_size": false, "fill": false, "force_uri_protocol": "https", "formatter": null, "half_pie": false, "height": 600, "include_x_axis": false, "inner_radius": 0, "interpolate": null, "interpolation_parameters": {}, "interpolation_precision": 250, "inverse_y_axis": false, "js": ["//kozea.github.io/pygal.js/2.0.x/pygal-tooltips.min.js"], "legend_at_bottom": false, "legend_at_bottom_columns": null, "legend_box_size": 12, "logarithmic": false, "margin": 20, "margin_bottom": null, "margin_left": null, "margin_right": null, "margin_top": null, "max_scale": 16, "min_scale": 4, "missing_value_fill_truncation": "x", "no_data_text": "No data", "no_prefix": false, "order_min": null, "pretty_print": false, "print_labels": false, "print_values": false, "print_values_position": "center", "print_zeroes": true, "range": null, "rounded_bars": null, "secondary_range": null, "show_dots": true, "show_legend": true, "show_minor_x_labels": true, "show_minor_y_labels": true, "show_only_major_dots": false, "show_x_guides": false, "show_x_labels": true, "show_y_guides": true, "show_y_labels": true, "spacing": 10, "stack_from_top": false, "strict": false, "stroke": true, "stroke_style": null, "style": {"background": "rgba(249, 249, 249, 1)", "ci_colors": [], "colors": ["#F44336", "#3F51B5", "#009688", "#FFC107", "#FF5722", "#9C27B0", "#03A9F4", "#8BC34A", "#FF9800", "#E91E63", "#2196F3", "#4CAF50", "#FFEB3B", "#673AB7", "#00BCD4", "#CDDC39", "#9E9E9E", "#607D8B"], "font_family": "Consolas, \"Liberation Mono\", Menlo, Courier, monospace", "foreground": "rgba(0, 0, 0, .87)", "foreground_strong": "rgba(0, 0, 0, 1)", "foreground_subtle": "rgba(0, 0, 0, .54)", "guide_stroke_dasharray": "4,4", "label_font_family": "Consolas, \"Liberation Mono\", Menlo, Courier, monospace", "label_font_size": 10, "legend_font_family": "Consolas, \"Liberation Mono\", Menlo, Courier, monospace", "legend_font_size": 14, "major_guide_stroke_dasharray": "6,6", "major_label_font_family": "Consolas, \"Liberation Mono\", Menlo, Courier, monospace", "major_label_font_size": 10, "no_data_font_family": "Consolas, \"Liberation Mono\", Menlo, Courier, monospace", "no_data_font_size": 64, "opacity": ".7", "opacity_hover": ".8", "plot_background": "rgba(255, 255, 255, 1)", "stroke_opacity": ".8", "stroke_opacity_hover": ".9", "title_font_family": "Consolas, \"Liberation Mono\", Menlo, Courier, monospace", "title_font_size": 16, "tooltip_font_family": "Consolas, \"Liberation Mono\", Menlo, Courier, monospace", "tooltip_font_size": 14, "transition": "150ms", "value_background": "rgba(229, 229, 229, 1)", "value_colors": [], "value_font_family": "Consolas, \"Liberation Mono\", Menlo, Courier, monospace", "value_font_size": 16, "value_label_font_family": "Consolas, \"Liberation Mono\", Menlo, Courier, monospace", "value_label_font_size": 10}, "title": "Petal Lengths", "tooltip_border_radius": 0, "tooltip_fancy_mode": true, "truncate_label": null, "truncate_legend": null, "width": 800, "x_label_rotation": 0, "x_labels": null, "x_labels_major": null, "x_labels_major_count": null, "x_labels_major_every": null, "x_title": null, "xrange": null, "y_label_rotation": 0, "y_labels": null, "y_labels_major": null, "y_labels_major_count": null, "y_labels_major_every": null, "y_title": null, "zero": 0, "legends": ["1-1.9 cm", "3-3.9 cm", "4-4.9 cm", "5-5.9 cm", "6-6.9 cm"]}</script><script type="text/javascript" xlink:href="https://kozea.github.io/pygal.js/2.0.x/pygal-tooltips.min.js"/></defs><title>Petal Lengths</title><g class="graph pie-graph vertical"><rect class="background" height="600" width="800" x="0" y="0"/><g class="plot" transform="translate(109, 46)"><rect class="background" height="534" width="670.8" x="0" y="0"/><g class="series serie-0 color-0"><g class="slices"><g class="slice"><path class="slice reactive tooltip-trigger" d="M335.400000 0.000000 A267.000000 267.000000 0 0 1 346.886936 0.247211 L345.738243 26.922490 A240.300000 240.300000 0 0 0 335.400000 26.700000 z"/><desc class="value">1</desc><desc class="x centered">340.8575581146977</desc><desc class="y centered">13.40871947280067</desc></g><g class="slice"><path class="slice reactive tooltip-trigger" d="M346.886936 0.247211 A267.000000 267.000000 0 0 1 358.352601 0.988387 L356.057341 27.589549 A240.300000 240.300000 0 0 0 345.738243 26.922490 z"/><desc class="value">1</desc><desc class="x centered">351.76256820281907</desc><desc class="y centered">13.878312146493272</desc></g><g class="slice"><path class="slice reactive tooltip-trigger" d="M358.352601 0.988387 A267.000000 267.000000 0 0 1 381.135269 3.946231 L376.561743 30.251608 A240.300000 240.300000 0 0 0 356.057341 27.589549 z"/><desc class="value">2</desc><desc class="x centered">368.0569752108471</desc><desc class="y centered">15.4610478075451</desc></g><g class="slice"><path class="slice reactive tooltip-trigger" d="M381.135269 3.946231 A267.000000 267.000000 0 0 1 457.127087 29.362637 L444.954378 53.126373 A240.300000 240.300000 0 0 0 376.561743 30.251608 z"/><desc class="value">7</desc><desc class="x centered">415.8555703506267</desc><desc class="y centered">26.448085229912692</desc></g><g class="slice"><path class="slice reactive tooltip-trigger" d="M457.127087 29.362637 A267.000000 267.000000 0 0 1 558.592103 120.458930 L536.272893 135.113037 A240.300000 240.300000 0 0 0 444.954378 53.126373 z"/><desc class="value">12</desc><desc class="x centered">504.8543991577627</desc><desc class="y centered">78.25803565162931</desc></g><g class="slice"><path class="slice reactive tooltip-trigger" d="M558.592103 120.458930 A267.000000 267.000000 0 0 1 602.338190 272.744798 L575.644371 272.170318 A240.300000 240.300000 0 0 0 536.272893 135.113037 z"/><desc class="value">14</desc><desc class="x centered">579.190569679209</desc><desc class="y centered">196.96800277382698</desc></g><g class="slice"><path class="slice reactive tooltip-trigger" d="M602.338190 272.744798 A267.000000 267.000000 0 0 1 588.612542 351.690074 L563.291288 343.221067 A240.300000 240.300000 0 0 0 575.644371 272.170318 z"/><desc class="value">7</desc><desc class="x centered">585.3010800786748</desc><desc class="y centered">310.4485060216317</desc></g><g class="slice"><path class="slice reactive tooltip-trigger" d="M588.612542 351.690074 A267.000000 267.000000 0 0 1 570.363258 393.811936 L546.866933 381.130743 A240.300000 240.300000 0 0 0 563.291288 343.221067 z"/><desc class="value">4</desc><desc class="x centered">568.1450867499652</desc><desc class="y centered">367.8367348427702</desc></g><g class="slice"><path class="slice reactive tooltip-trigger" d="M570.363258 393.811936 A267.000000 267.000000 0 0 1 558.592103 413.541070 L536.272893 398.886963 A240.300000 240.300000 0 0 0 546.866933 381.130743 z"/><desc class="value">2</desc><desc class="x centered">553.2254780166575</desc><desc class="y centered">396.96300868637456</desc></g><g class="slice"><desc class="value">0</desc><desc class="x centered">547.4324978545374</desc><desc class="y centered">406.214016368919</desc></g><g class="big_slice"><path class="slice reactive tooltip-trigger" d="M335.400000 26.700000 A240.300000 240.300000 0 0 1 536.272893 398.886963 L335.400000 267.000000 A0.000000 0.000000 0 0 0 335.400000 267.000000 z"/><desc class="value">50</desc><desc class="x centered">441.1334663074203</desc><desc class="y centered">209.93462869114387</desc></g></g></g><g class="series serie-1 color-1"><g class="slices"><g class="slice"><path class="slice reactive tooltip-trigger" d="M558.592103 413.541070 A267.000000 267.000000 0 0 1 552.080929 423.007612 L530.412836 407.406851 A240.300000 240.300000 0 0 0 536.272893 398.886963 z"/><desc class="value">1</desc><desc class="x centered">544.3880704104037</desc><desc class="y centered">410.743900483242</desc></g><g class="slice"><path class="slice reactive tooltip-trigger" d="M552.080929 423.007612 A267.000000 267.000000 0 0 1 537.867651 441.057032 L517.620886 423.651329 A240.300000 240.300000 0 0 0 530.412836 407.406851 z"/><desc class="value">2</desc><desc class="x centered">534.680085740716</desc><desc class="y centered">423.92600143753396</desc></g><g class="slice"><path class="slice reactive tooltip-trigger" d="M537.867651 441.057032 A267.000000 267.000000 0 0 1 522.155373 457.817794 L503.479836 438.736015 A240.300000 240.300000 0 0 0 517.620886 423.651329 z"/><desc class="value">2</desc><desc class="x centered">520.4522735940376</desc><desc class="y centered">440.4761612950824</desc></g><g class="slice"><path class="slice reactive tooltip-trigger" d="M522.155373 457.817794 A267.000000 267.000000 0 0 1 513.773052 465.675752 L495.935747 445.808177 A240.300000 240.300000 0 0 0 503.479836 438.736015 z"/><desc class="value">1</desc><desc class="x centered">508.8761612950825</desc><desc class="y centered">452.0522735940375</desc></g><g class="slice"><path class="slice reactive tooltip-trigger" d="M513.773052 465.675752 A267.000000 267.000000 0 0 1 505.060424 473.165808 L488.094382 452.549227 A240.300000 240.300000 0 0 0 495.935747 445.808177 z"/><desc class="value">1</desc><desc class="x centered">500.7541803046355</desc><desc class="y centered">459.3442683205874</desc></g><g class="slice"><path class="slice reactive tooltip-trigger" d="M505.060424 473.165808 A267.000000 267.000000 0 0 1 496.033625 480.274093 L479.970262 458.946683 A240.300000 240.300000 0 0 0 488.094382 452.549227 z"/><desc class="value">1</desc><desc class="x centered">492.32600143753405</desc><desc class="y centered">466.2800857407159</desc></g><g class="slice"><path class="slice reactive tooltip-trigger" d="M496.033625 480.274093 A267.000000 267.000000 0 0 1 467.238072 499.180367 L454.054265 475.962330 A240.300000 240.300000 0 0 0 479.970262 458.946683 z"/><desc class="value">3</desc><desc class="x centered">474.6140163689192</desc><desc class="y centered">479.03249785453716</desc></g><g class="slice"><desc class="value">0</desc><desc class="x centered">460.6461682980783</desc><desc class="y centered">487.57134860776785</desc></g><g class="slice"><desc class="value">0</desc><desc class="x centered">460.6461682980783</desc><desc class="y centered">487.57134860776785</desc></g><g class="slice"><desc class="value">0</desc><desc class="x centered">460.6461682980783</desc><desc class="y centered">487.57134860776785</desc></g><g class="big_slice"><path class="slice reactive tooltip-trigger" d="M536.272893 398.886963 A240.300000 240.300000 0 0 1 454.054265 475.962330 L335.400000 267.000000 A0.000000 0.000000 0 0 0 335.400000 267.000000 z"/><desc class="value">11</desc><desc class="x centered">417.57291850819695</desc><desc class="y centered">354.6563401234915</desc></g></g></g><g class="series serie-2 color-2"><g class="slices"><g class="slice"><path class="slice reactive tooltip-trigger" d="M467.238072 499.180367 A267.000000 267.000000 0 0 1 414.622323 521.976124 L406.700090 496.478511 A240.300000 240.300000 0 0 0 454.054265 475.962330 z"/><desc class="value">5</desc><desc class="x centered">436.2367348427703</desc><desc class="y centered">499.7450867499652</desc></g><g class="slice"><path class="slice reactive tooltip-trigger" d="M414.622323 521.976124 A267.000000 267.000000 0 0 1 381.135269 530.053769 L376.561743 503.748392 A240.300000 240.300000 0 0 0 406.700090 496.478511 z"/><desc class="value">3</desc><desc class="x centered">394.8787409645346</desc><desc class="y centered">513.5777805749614</desc></g><g class="slice"><path class="slice reactive tooltip-trigger" d="M381.135269 530.053769 A267.000000 267.000000 0 0 1 335.400000 534.000000 L335.400000 507.300000 A240.300000 240.300000 0 0 0 376.561743 503.748392 z"/><desc class="value">4</desc><desc class="x centered">357.2049711997534</desc><desc class="y centered">519.7110320721632</desc></g><g class="slice"><path class="slice reactive tooltip-trigger" d="M335.400000 534.000000 A267.000000 267.000000 0 0 1 312.447399 533.011613 L314.742659 506.410451 A240.300000 240.300000 0 0 0 335.400000 507.300000 z"/><desc class="value">2</desc><desc class="x centered">324.48741059840097</desc><desc class="y centered">520.4151492956806</desc></g><g class="slice"><path class="slice reactive tooltip-trigger" d="M312.447399 533.011613 A267.000000 267.000000 0 0 1 267.220670 525.148366 L274.038603 499.333530 A240.300000 240.300000 0 0 0 314.742659 506.410451 z"/><desc class="value">4</desc><desc class="x centered">291.9514939783683</desc><desc class="y centered">516.9010800786748</desc></g><g class="slice"><path class="slice reactive tooltip-trigger" d="M267.220670 525.148366 A267.000000 267.000000 0 0 1 184.090631 486.987443 L199.221568 464.988698 A240.300000 240.300000 0 0 0 274.038603 499.333530 z"/><desc class="value">8</desc><desc class="x centered">229.57884269738594</desc><desc class="y centered">497.521593711165</desc></g><g class="slice"><path class="slice reactive tooltip-trigger" d="M184.090631 486.987443 A267.000000 267.000000 0 0 1 157.026948 465.675752 L174.864253 445.808177 A240.300000 240.300000 0 0 0 199.221568 464.988698 z"/><desc class="value">3</desc><desc class="x centered">178.47399856246608</desc><desc class="y centered">466.280085740716</desc></g><g class="slice"><path class="slice reactive tooltip-trigger" d="M157.026948 465.675752 A267.000000 267.000000 0 0 1 118.719071 423.007612 L140.387164 407.406851 A240.300000 240.300000 0 0 0 174.864253 445.808177 z"/><desc class="value">5</desc><desc class="x centered">146.6580356516294</desc><desc class="y centered">436.45439915776285</desc></g><g class="slice"><path class="slice reactive tooltip-trigger" d="M118.719071 423.007612 A267.000000 267.000000 0 0 1 95.198558 383.585879 L119.218702 371.927291 A240.300000 240.300000 0 0 0 140.387164 407.406851 z"/><desc class="value">4</desc><desc class="x centered">117.57452198334258</desc><desc class="y centered">396.9630086863747</desc></g><g class="slice"><path class="slice reactive tooltip-trigger" d="M95.198558 383.585879 A267.000000 267.000000 0 0 1 75.844442 329.609201 L101.799997 323.348281 A240.300000 240.300000 0 0 0 119.218702 371.927291 z"/><desc class="value">5</desc><desc class="x centered">96.63486241286634</desc><desc class="y centered">352.61268348204686</desc></g><g class="big_slice"><path class="slice reactive tooltip-trigger" d="M454.054265 475.962330 A240.300000 240.300000 0 0 1 101.799997 323.348281 L335.400000 267.000000 A0.000000 0.000000 0 0 0 335.400000 267.000000 z"/><desc class="value">43</desc><desc class="x centered">287.63523086395094</desc><desc class="y centered">377.2476726710362</desc></g></g></g><g class="series serie-3 color-3"><g class="slices"><g class="slice"><path class="slice reactive tooltip-trigger" d="M75.844442 329.609201 A267.000000 267.000000 0 0 1 69.943819 238.329180 L96.489437 241.196262 A240.300000 240.300000 0 0 0 101.799997 323.348281 z"/><desc class="value">8</desc><desc class="x centered">82.27831214649325</desc><desc class="y centered">283.36256820281926</desc></g><g class="slice"><path class="slice reactive tooltip-trigger" d="M69.943819 238.329180 A267.000000 267.000000 0 0 1 73.391172 215.615428 L99.592055 220.753885 A240.300000 240.300000 0 0 0 96.489437 241.196262 z"/><desc class="value">2</desc><desc class="x centered">84.6219292375668</desc><desc class="y centered">228.93844820987897</desc></g><g class="slice"><path class="slice reactive tooltip-trigger" d="M73.391172 215.615428 A267.000000 267.000000 0 0 1 78.778348 193.282108 L104.440513 200.653897 A240.300000 240.300000 0 0 0 99.592055 220.753885 z"/><desc class="value">2</desc><desc class="x centered">88.82221942503855</desc><desc class="y centered">207.52125903546568</desc></g><g class="slice"><path class="slice reactive tooltip-trigger" d="M78.778348 193.282108 A267.000000 267.000000 0 0 1 86.065460 171.494570 L110.998914 181.045113 A240.300000 240.300000 0 0 0 104.440513 200.653897 z"/><desc class="value">2</desc><desc class="x centered">94.84808522991261</desc><desc class="y centered">186.54442964937337</desc></g><g class="slice"><path class="slice reactive tooltip-trigger" d="M86.065460 171.494570 A267.000000 267.000000 0 0 1 100.436742 140.188064 L123.933067 152.869257 A240.300000 240.300000 0 0 0 110.998914 181.045113 z"/><desc class="value">3</desc><desc class="x centered">104.87840628883495</desc><desc class="y centered">161.17884269738607</desc></g><g class="slice"><path class="slice reactive tooltip-trigger" d="M100.436742 140.188064 A267.000000 267.000000 0 0 1 140.608133 84.393514 L160.087320 102.654163 A240.300000 240.300000 0 0 0 123.933067 152.869257 z"/><desc class="value">6</desc><desc class="x centered">129.5531176827827</desc><desc class="y centered">118.79276825916455</desc></g><g class="slice"><path class="slice reactive tooltip-trigger" d="M140.608133 84.393514 A267.000000 267.000000 0 0 1 165.739576 60.834192 L182.705618 81.450773 A240.300000 240.300000 0 0 0 160.087320 102.654163 z"/><desc class="value">3</desc><desc class="x centered">161.92383870491736</desc><desc class="y centered">81.94772640596258</desc></g><g class="slice"><path class="slice reactive tooltip-trigger" d="M165.739576 60.834192 A267.000000 267.000000 0 0 1 193.695077 40.706574 L207.865569 63.335916 A240.300000 240.300000 0 0 0 182.705618 81.450773 z"/><desc class="value">3</desc><desc class="x centered">187.19276825916427</desc><desc class="y centered">61.15311768278292</desc></g><g class="slice"><path class="slice reactive tooltip-trigger" d="M193.695077 40.706574 A267.000000 267.000000 0 0 1 213.672913 29.362637 L225.845622 53.126373 A240.300000 240.300000 0 0 0 207.865569 63.335916 z"/><desc class="value">2</desc><desc class="x centered">210.15383170192172</desc><desc class="y centered">46.428651392232155</desc></g><g class="slice"><desc class="value">0</desc><desc class="x centered">219.75926719157928</desc><desc class="y centered">41.244505237344356</desc></g><g class="big_slice"><path class="slice reactive tooltip-trigger" d="M101.799997 323.348281 A240.300000 240.300000 0 0 1 225.845622 53.126373 L335.400000 267.000000 A0.000000 0.000000 0 0 0 335.400000 267.000000 z"/><desc class="value">31</desc><desc class="x centered">226.20556087365864</desc><desc class="y centered">216.87418864613025</desc></g></g></g><g class="series serie-4 color-4"><g class="slices"><g class="slice"><path class="slice reactive tooltip-trigger" d="M213.672913 29.362637 A267.000000 267.000000 0 0 1 234.551973 19.778084 L244.636776 44.500276 A240.300000 240.300000 0 0 0 225.845622 53.126373 z"/><desc class="value">2</desc><desc class="x centered">229.57884269738557</desc><desc class="y centered">36.478406288835174</desc></g><g class="slice"><path class="slice reactive tooltip-trigger" d="M234.551973 19.778084 A267.000000 267.000000 0 0 1 267.220670 8.851634 L274.038603 34.666470 A240.300000 240.300000 0 0 0 244.636776 44.500276 z"/><desc class="value">3</desc><desc class="x centered">254.9444296493728</desc><desc class="y centered">26.448085229912834</desc></g><g class="slice"><path class="slice reactive tooltip-trigger" d="M267.220670 8.851634 A267.000000 267.000000 0 0 1 278.389916 6.157422 L284.090924 32.241680 A240.300000 240.300000 0 0 0 274.038603 34.666470 z"/><desc class="value">1</desc><desc class="x centered">275.9212590354653</desc><desc class="y centered">20.422219425038662</desc></g><g class="slice"><path class="slice reactive tooltip-trigger" d="M278.389916 6.157422 A267.000000 267.000000 0 0 1 289.664731 3.946231 L294.238257 30.251608 A240.300000 240.300000 0 0 0 284.090924 32.241680 z"/><desc class="value">1</desc><desc class="x centered">286.5846562330988</desc><desc class="y centered">18.09161381560631</desc></g><g class="slice"><path class="slice reactive tooltip-trigger" d="M289.664731 3.946231 A267.000000 267.000000 0 0 1 301.024237 2.222156 L304.461813 28.699940 A240.300000 240.300000 0 0 0 294.238257 30.251608 z"/><desc class="value">1</desc><desc class="x centered">297.33844820987883</desc><desc class="y centered">16.221929237566854</desc></g><g class="slice"><path class="slice reactive tooltip-trigger" d="M301.024237 2.222156 A267.000000 267.000000 0 0 1 323.913064 0.247211 L325.061757 26.922490 A240.300000 240.300000 0 0 0 304.461813 28.699940 z"/><desc class="value">2</desc><desc class="x centered">313.59502880024684</desc><desc class="y centered">14.288967927836723</desc></g><g class="slice"><path class="slice reactive tooltip-trigger" d="M323.913064 0.247211 A267.000000 267.000000 0 0 1 335.400000 0.000000 L335.400000 26.700000 A240.300000 240.300000 0 0 0 325.061757 26.922490 z"/><desc class="value">1</desc><desc class="x centered">329.94244188530234</desc><desc class="y centered">13.40871947280067</desc></g><g class="slice"><desc class="value">0</desc><desc class="x centered">335.40000000000015</desc><desc class="y centered">13.349999999999994</desc></g><g class="slice"><desc class="value">0</desc><desc class="x centered">335.40000000000015</desc><desc class="y centered">13.349999999999994</desc></g><g class="slice"><desc class="value">0</desc><desc class="x centered">335.40000000000015</desc><desc class="y centered">13.349999999999994</desc></g><g class="big_slice"><path class="slice reactive tooltip-trigger" d="M225.845622 53.126373 A240.300000 240.300000 0 0 1 335.400000 26.700000 L335.400000 267.000000 A0.000000 0.000000 0 0 0 335.400000 267.000000 z"/><desc class="value">11</desc><desc class="x centered">307.22585954311506</desc><desc class="y centered">150.19999867501832</desc></g></g></g></g><g class="titles"><text class="title plot_title" x="400.0" y="26">Petal Lengths</text></g><g class="plot overlay" transform="translate(109, 46)"><g class="series serie-0 color-0"/><g class="series serie-1 color-1"/><g class="series serie-2 color-2"/><g class="series serie-3 color-3"/><g class="series serie-4 color-4"/></g><g class="plot text-overlay" transform="translate(109, 46)"><g class="series serie-0 color-0"/><g class="series serie-1 color-1"/><g class="series serie-2 color-2"/><g class="series serie-3 color-3"/><g class="series serie-4 color-4"/></g><g class="plot tooltip-overlay" transform="translate(109, 46)"><g class="tooltip" style="opacity: 0" transform="translate(0 0)"><rect class="tooltip-box" height="0" rx="0" ry="0" width="0"/><g class="text"/></g></g><g class="legends" transform="translate(10, 56)"><g class="legend reactive activate-serie" id="activate-serie-0"><rect class="color-0 reactive" height="12" width="12" x="0.0" y="1.0"/><text x="17.0" y="11.2">1-1.9 cm</text></g><g class="legend reactive activate-serie" id="activate-serie-1"><rect class="color-1 reactive" height="12" width="12" x="0.0" y="22.0"/><text x="17.0" y="32.2">3-3.9 cm</text></g><g class="legend reactive activate-serie" id="activate-serie-2"><rect class="color-2 reactive" height="12" width="12" x="0.0" y="43.0"/><text x="17.0" y="53.2">4-4.9 cm</text></g><g class="legend reactive activate-serie" id="activate-serie-3"><rect class="color-3 reactive" height="12" width="12" x="0.0" y="64.0"/><text x="17.0" y="74.2">5-5.9 cm</text></g><g class="legend reactive activate-serie" id="activate-serie-4"><rect class="color-4 reactive" height="12" width="12" x="0.0" y="85.0"/><text x="17.0" y="95.2">6-6.9 cm</text></g></g><g class="legends" transform="translate(790, 56)"/></g></svg>